<?xml version="1.0"?>
<svg xmlns="http://www.w3.org/2000/svg" xmlns:xlink="http://www.w3.org/1999/xlink" xmlns:svgjs="http://svgjs.com/svgjs" version="1.1" width="512" height="512" x="0" y="0" viewBox="0 0 430 430.00026" style="enable-background:new 0 0 512 512" xml:space="preserve" class=""><g><path xmlns="http://www.w3.org/2000/svg" d="m256.058594 299.539062-1.261719.460938h-112.21875l-1.261719-.460938 42.929688-118.199218.230468-.621094c9.15625 3.480469 19.265626 3.480469 28.421876 0l.230468.621094zm0 0" fill="#61afe5" data-original="#fedb41" style="" class=""/><path xmlns="http://www.w3.org/2000/svg" d="m256.058594 299.539062 43.738281 120.460938h-202.21875l43.738281-120.460938 1.261719.460938h112.21875zm0 0" fill="#00acea" data-original="#00acea" style="" class=""/><path xmlns="http://www.w3.org/2000/svg" d="m198.6875 103.640625c22.007812 0 39.851562 17.839844 39.851562 39.851563 0 22.007812-17.84375 39.847656-39.851562 39.847656s-39.851562-17.839844-39.851562-39.847656c0-22.011719 17.84375-39.851563 39.851562-39.851563zm0 0" fill="#a4daff" data-original="#00efd1" style="" class=""/><g xmlns="http://www.w3.org/2000/svg" fill="#083863"><path d="m119.988281 231.691406c4.042969 0 7.6875-2.4375 9.238281-6.171875 1.546876-3.738281.691407-8.039062-2.167968-10.898437-39.351563-39.449219-39.351563-103.308594 0-142.757813 3.90625-3.90625 3.90625-10.238281 0-14.144531s-10.238282-3.90625-14.140625 0c-47.152344 47.265625-47.152344 123.777344 0 171.042969 1.871093 1.878906 4.417969 2.929687 7.070312 2.929687zm0 0" fill="#083863" data-original="#083863" style=""/><path d="m270.316406 57.71875c-3.90625 3.90625-3.90625 10.238281 0 14.144531 39.355469 39.449219 39.355469 103.308594 0 142.757813-2.542968 2.523437-3.542968 6.214844-2.621094 9.675781.921876 3.460937 3.625 6.164063 7.089844 7.085937 3.460938.921876 7.152344-.078124 9.675782-2.621093 47.148437-47.265625 47.148437-123.777344 0-171.042969-3.90625-3.90625-10.238282-3.90625-14.144532 0zm0 0" fill="#083863" data-original="#083863" style=""/><path d="m72.269531 17.070312c3.902344-3.90625 3.902344-10.238281 0-14.140624-3.90625-3.90625-10.238281-3.90625-14.144531 0-77.5 77.507812-77.5 203.613281 0 281.113281 2.519531 2.566406 6.21875 3.582031 9.695312 2.664062 3.476563-.921875 6.191407-3.636719 7.109376-7.109375.921874-3.476562-.097657-7.179687-2.664063-9.699218-69.699219-69.699219-69.699219-183.117188.003906-252.828126zm0 0" fill="#083863" data-original="#083863" style=""/><path d="m325.105469 2.929688c-3.902344 3.90625-3.902344 10.238281 0 14.140624 69.703125 69.710938 69.703125 183.128907 0 252.828126-2.542969 2.523437-3.542969 6.214843-2.621094 9.679687.921875 3.460937 3.625 6.164063 7.089844 7.085937 3.460937.921876 7.152343-.078124 9.675781-2.621093 77.5-77.5 77.5-203.601563 0-281.113281-3.90625-3.90625-10.238281-3.90625-14.144531 0zm0 0" fill="#083863" data-original="#083863" style=""/><path d="m265.457031 296.125-40.140625-110.519531c18.761719-11.855469 27.425782-34.683594 21.253906-56-6.171874-21.320313-25.691406-35.988281-47.882812-35.988281s-41.714844 14.667968-47.882812 35.988281c-6.171876 21.316406 2.492187 44.144531 21.253906 56l-40.140625 110.523437-43.742188 120.457032c-1.113281 3.066406-.660156 6.484374 1.210938 9.152343 1.871093 2.671875 4.929687 4.261719 8.191406 4.261719h202.21875c3.261719 0 6.316406-1.589844 8.191406-4.261719 1.871094-2.667969 2.320313-6.085937 1.207031-9.152343zm-66.769531-102.792969c2.652344-.003906 5.304688-.21875 7.921875-.640625l35.34375 97.308594h-86.53125l35.339844-97.308594c2.621093.421875 5.269531.636719 7.925781.640625zm0-79.691406c16.484375 0 29.84375 13.363281 29.84375 29.84375 0 16.484375-13.359375 29.847656-29.84375 29.847656-3.632812.007813-7.238281-.652343-10.632812-1.949219h-.011719c-13.460938-5.132812-21.335938-19.140624-18.722657-33.304687 2.609376-14.164063 14.964844-24.445313 29.367188-24.4375zm-86.839844 296.359375 36.308594-100h101.0625l36.308594 100zm0 0" fill="#083863" data-original="#083863" style=""/></g></g></svg>
