<?xml version="1.0" encoding="iso-8859-1"?>
<!-- Generator: Adobe Illustrator 19.0.0, SVG Export Plug-In . SVG Version: 6.00 Build 0)  -->
<svg version="1.1" id="Capa_1" xmlns="http://www.w3.org/2000/svg" xmlns:xlink="http://www.w3.org/1999/xlink" x="0px" y="0px"
	 viewBox="0 0 508 508" style="enable-background:new 0 0 508 508;" xml:space="preserve">
<g>
	<g>
		<path d="M423.375,0l-11.7,11.7c86.9,86.9,86.9,228.4,0,315.4l11.7,11.7C516.775,245.3,516.775,93.4,423.375,0z"/>
	</g>
</g>
<g>
	<g>
		<path d="M31.075,169.4c0-59.6,23.2-115.7,65.2-157.7L84.575,0c-45.1,45.2-70,105.3-70,169.4s24.9,124.2,70.1,169.4l11.7-11.7
			C54.275,285,31.075,229,31.075,169.4z"/>
	</g>
</g>
<g>
	<g>
		<path d="M376.575,46.7l-11.6,11.7c29.6,29.6,45.9,69,45.9,111s-16.3,81.4-45.9,111l11.7,11.7c32.7-32.7,50.7-76.3,50.7-122.6
			C427.375,123,409.375,79.4,376.575,46.7z"/>
	</g>
</g>
<g>
	<g>
		<path d="M143.075,58.4l-11.7-11.7c-67.6,67.6-67.6,177.7,0,245.3l11.7-11.7C81.875,219.1,81.875,119.6,143.075,58.4z"/>
	</g>
</g>
<g>
	<g>
		<path d="M329.875,93.5l-11.7,11.6c35.4,35.4,35.4,93.1,0,128.5l11.7,11.7C371.775,203.4,371.775,135.3,329.875,93.5z"/>
	</g>
</g>
<g>
	<g>
		<path d="M189.775,105l-11.7-11.6c-41.9,41.9-41.9,110,0,151.8l11.7-11.7C154.375,198.1,154.375,140.4,189.775,105z"/>
	</g>
</g>
<g>
	<g>
		<path d="M253.975,128.1c-22.8,0-41.3,18.5-41.3,41.3c0,19.9,14.2,36.6,33,40.5V508h16.5V209.8c18.8-3.8,33-20.5,33-40.5
			C295.275,146.6,276.775,128.1,253.975,128.1z M253.975,194.1c-13.7,0-24.8-11.1-24.8-24.8s11.1-24.8,24.8-24.8
			s24.8,11.1,24.8,24.8S267.675,194.1,253.975,194.1z"/>
	</g>
</g>
<g>
</g>
<g>
</g>
<g>
</g>
<g>
</g>
<g>
</g>
<g>
</g>
<g>
</g>
<g>
</g>
<g>
</g>
<g>
</g>
<g>
</g>
<g>
</g>
<g>
</g>
<g>
</g>
<g>
</g>
</svg>
