<?xml version="1.0"?>
<svg xmlns="http://www.w3.org/2000/svg" xmlns:xlink="http://www.w3.org/1999/xlink" xmlns:svgjs="http://svgjs.com/svgjs" version="1.1" width="512" height="512" x="0" y="0" viewBox="0 0 512.001 512.001" style="enable-background:new 0 0 512 512" xml:space="preserve" class=""><g><g xmlns="http://www.w3.org/2000/svg"><path d="m502 306.892v-101.783h-40.726c-5.142-20.806-13.353-40.401-24.144-58.268l28.805-28.805-71.97-71.971-28.805 28.805c-17.867-10.791-37.461-19.003-58.268-24.144v-40.726h-101.782v40.727c-20.806 5.141-40.402 13.354-58.268 24.144l-28.805-28.805-71.971 71.971 28.805 28.805c-10.791 17.867-19.003 37.461-24.144 58.268h-40.727v101.782h40.727c5.141 20.806 13.353 40.401 24.144 58.267l-28.805 28.805 71.971 71.971 28.805-28.805c17.866 10.791 37.461 19.003 58.268 24.144v40.727h101.782v-40.727c20.806-5.141 40.401-13.354 58.268-24.144l28.805 28.805 71.97-71.971-28.805-28.805c10.791-17.867 19.002-37.461 24.144-58.267z" fill="#a4daff" data-original="#66e0f7" style="" class=""/><circle cx="256.001" cy="256.001" fill="#ffffff" r="147.336" data-original="#ffffff" style="" class=""/><circle cx="256.001" cy="256.001" fill="#ffe181" r="103.365" data-original="#a0e5a5" style="" class=""/><g><path d="m246.224 303.439c-5.119 0-10.237-1.953-14.142-5.858l-33.138-33.138 28.284-28.284 18.996 18.996 40.562-40.562 28.284 28.284-54.704 54.704c-3.905 3.905-9.024 5.858-14.142 5.858z" fill="#ffffff" data-original="#ffffff" style="" class=""/></g><g><path d="m303.5 105.964c-5.262-1.665-10.884 1.252-12.55 6.519-1.666 5.266 1.252 10.884 6.518 12.55 27.216 8.609 51.643 26.032 68.781 49.06 17.721 23.81 27.087 52.133 27.087 81.908 0 75.728-61.608 137.336-137.336 137.336s-137.335-61.609-137.335-137.337c0-29.774 9.367-58.097 27.087-81.907 17.138-23.028 41.565-40.451 68.781-49.06 5.266-1.666 8.184-7.284 6.518-12.55s-7.285-8.185-12.55-6.518c-31.638 10.007-58.885 29.437-78.793 56.188-20.309 27.287-31.043 59.739-31.043 93.847 0 86.755 70.581 157.336 157.336 157.336s157.335-70.58 157.335-157.336c0-34.109-10.734-66.561-31.043-93.849-19.908-26.75-47.155-46.179-78.793-56.187z" fill="#000000" data-original="#000000" style="" class=""/><path d="m502 195.109h-33.041c-4.633-16.24-11.109-31.869-19.323-46.632l23.37-23.369c3.905-3.905 3.905-10.237 0-14.143l-71.97-71.97c-1.875-1.875-4.419-2.929-7.071-2.929s-5.196 1.054-7.071 2.929l-23.369 23.37c-14.764-8.214-30.392-14.69-46.632-19.323v-33.042c0-5.523-4.477-10-10-10h-101.783c-5.523 0-10 4.477-10 10v33.042c-16.241 4.633-31.87 11.109-46.632 19.323l-23.369-23.369c-1.875-1.875-4.419-2.929-7.071-2.929s-5.196 1.054-7.071 2.929l-71.971 71.971c-1.875 1.875-2.929 4.419-2.929 7.071s1.054 5.196 2.929 7.071l23.369 23.369c-8.214 14.764-14.69 30.392-19.323 46.632h-33.042c-5.523 0-10 4.477-10 10v101.782c0 5.523 4.477 10 10 10h33.042c4.633 16.24 11.108 31.868 19.323 46.632l-23.369 23.369c-1.875 1.875-2.929 4.419-2.929 7.071s1.054 5.196 2.929 7.071l71.971 71.971c3.904 3.905 10.237 3.905 14.142 0l23.369-23.369c14.764 8.214 30.392 14.69 46.632 19.323v33.042c0 5.523 4.477 10 10 10h101.782c5.523 0 10-4.477 10-10v-33.042c16.24-4.633 31.868-11.108 46.632-19.323l23.369 23.37c3.905 3.905 10.237 3.905 14.143 0l71.97-71.97c3.905-3.905 3.905-10.237 0-14.143l-23.37-23.369c8.214-14.763 14.69-30.392 19.323-46.632h33.041c5.523 0 10-4.477 10-10v-101.784c0-5.523-4.477-10-10-10zm-10 101.783h-30.727c-4.599 0-8.604 3.137-9.708 7.601-4.835 19.565-12.572 38.236-22.996 55.497-2.378 3.938-1.763 8.989 1.489 12.241l21.733 21.734-57.828 57.829-21.734-21.734c-3.251-3.251-8.302-3.866-12.241-1.489-17.261 10.425-35.933 18.162-55.497 22.996-4.464 1.103-7.601 5.109-7.601 9.708v30.727h-81.78v-30.727c0-4.599-3.137-8.605-7.601-9.708-19.564-4.834-38.236-12.571-55.497-22.996-3.938-2.378-8.989-1.763-12.241 1.489l-21.733 21.733-57.829-57.829 21.734-21.733c3.252-3.252 3.867-8.304 1.489-12.241-10.425-17.261-18.162-35.933-22.996-55.497-1.103-4.464-5.109-7.601-9.708-7.601h-30.728v-81.782h30.727c4.599 0 8.605-3.137 9.708-7.601 4.834-19.563 12.571-38.235 22.996-55.497 2.378-3.938 1.763-8.989-1.489-12.241l-21.734-21.733 57.829-57.829 21.733 21.734c3.254 3.253 8.305 3.867 12.241 1.489 17.259-10.424 35.931-18.162 55.497-22.997 4.465-1.104 7.601-5.109 7.601-9.708v-30.727h81.782v30.727c0 4.599 3.137 8.605 7.601 9.708 19.564 4.834 38.236 12.571 55.497 22.997 3.937 2.378 8.989 1.763 12.241-1.489l21.734-21.734 57.828 57.829-21.733 21.734c-3.252 3.252-3.867 8.303-1.489 12.241 10.424 17.26 18.161 35.932 22.996 55.497 1.104 4.464 5.109 7.601 9.708 7.601h30.726z" fill="#000000" data-original="#000000" style="" class=""/><path d="m142.636 256c0 62.51 50.855 113.365 113.365 113.365s113.365-50.855 113.365-113.365-50.856-113.365-113.366-113.365-113.364 50.856-113.364 113.365zm206.73 0c0 51.482-41.883 93.365-93.365 93.365-51.481 0-93.365-41.883-93.365-93.365s41.883-93.365 93.365-93.365c51.481 0 93.365 41.884 93.365 93.365z" fill="#000000" data-original="#000000" style="" class=""/><path d="m234.299 229.087c-1.875-1.875-4.419-2.929-7.071-2.929s-5.196 1.054-7.071 2.929l-28.284 28.284c-3.905 3.905-3.905 10.237 0 14.142l33.138 33.139c5.667 5.666 13.2 8.787 21.213 8.787s15.547-3.121 21.213-8.787l54.704-54.704c3.905-3.905 3.905-10.237 0-14.143l-28.284-28.284c-3.905-3.905-10.237-3.905-14.143 0l-33.49 33.491zm52.486-.352 14.142 14.142-47.633 47.632c-1.889 1.889-4.4 2.929-7.071 2.929s-5.182-1.04-7.071-2.929l-26.067-26.068 14.142-14.142 11.925 11.925c1.875 1.875 4.419 2.929 7.071 2.929s5.196-1.054 7.071-2.929z" fill="#000000" data-original="#000000" style="" class=""/><circle cx="256" cy="108.663" r="10" fill="#000000" data-original="#000000" style="" class=""/></g></g></g></svg>
