<svg viewBox="0 -48 512 512" xmlns="http://www.w3.org/2000/svg"><path d="m236 35h40v48h-40zm0 0" fill="#4dbaf6"/><path d="m482 312h-50.152344v-40h50.152344c11.046875 0 20 8.953125 20 20s-8.953125 20-20 20zm0 0" fill="#ffc66c"/><path d="m320.167969 114.3125h-206.496094c-24.230469 0-47.03125-11.445312-61.503906-30.875h-42.167969v170.460938h42.167969v-4.433594c0-19.425782 9.484375-37.625 25.40625-48.746094 9.988281-6.976562 21.875-10.71875 34.054687-10.71875h93.253906c28.230469 0 51.117188 22.886719 51.117188 51.117188 0 17.082031-8.535156 33.039062-22.746094 42.519531l-12.226562 8.15625v60.207031h128.820312v-91.34375c0-17.910156 6.058594-35.292969 17.1875-49.320312 8.394532-10.578126 12.964844-23.6875 12.964844-37.191407 0-33.042969-26.785156-59.832031-59.832031-59.832031zm0 0" fill="#ade5ff"/><path d="m413.667969 406h-403.667969v-28.332031c0-14.175781 11.492188-25.667969 25.667969-25.667969h352.332031c14.175781 0 25.667969 11.492188 25.667969 25.667969zm0 0" fill="#898998"/><path d="m326 182c0 12.148438-9.851562 22-22 22s-22-9.851562-22-22 9.851562-22 22-22 22 9.851562 22 22zm0 0" fill="#fff"/><path d="m125.671875 342c-2.640625 0-5.210937 1.070312-7.070313 2.929688-1.871093 1.859374-2.929687 4.441406-2.929687 7.070312s1.058594 5.210938 2.929687 7.070312c1.859376 1.859376 4.429688 2.929688 7.070313 2.929688 2.628906 0 5.207031-1.070312 7.066406-2.929688 1.859375-1.859374 2.933594-4.441406 2.933594-7.070312s-1.070313-5.210938-2.933594-7.070312c-1.859375-1.859376-4.4375-2.929688-7.066406-2.929688zm0 0"/><path d="m31.085938 65c5.519531 0 10-4.476562 10-10v-23c0-5.523438-4.480469-10-10-10-5.523438 0-10 4.476562-10 10v23c0 5.523438 4.476562 10 10 10zm0 0"/><path d="m482 262h-50.152344c-5.523437 0-10 4.476562-10 10v10h-2.847656v-107.855469c0-5.523437-4.476562-10-10-10h-19v-67.144531c0-5.523438-4.476562-10-10-10s-10 4.476562-10 10v28.289062c-8.597656-8.765624-19.472656-15.273437-31.667969-18.5625v-88.394531c0-5.523437-4.476562-10-10-10-5.519531 0-10 4.476563-10 10v85.980469h-52.332031v-11.3125h21.605469c5.519531 0 10-4.476562 10-10s-4.480469-10-10-10h-1.605469v-28h1.605469c5.519531 0 10-4.476562 10-10s-4.480469-10-10-10h-21.605469v-15c0-5.523438-4.476562-10-10-10s-10 4.476562-10 10v15h-21.605469c-5.519531 0-10 4.476562-10 10s4.480469 10 10 10h1.605469v28h-1.605469c-5.519531 0-10 4.476562-10 10s4.480469 10 10 10h21.605469v11.3125h-132.328125c-20.96875 0-40.960937-10.035156-53.484375-26.847656-1.886719-2.535156-4.859375-4.027344-8.019531-4.027344h-42.167969c-5.523438 0-10 4.476562-10 10v170.460938c0 5.519531 4.476562 10 10 10h11.085938v25.101562h-4.667969c-5.523438 0-10 4.476562-10 10s4.476562 10 10 10h4.667969v36.128906c-12.414063 5.589844-21.085938 18.066406-21.085938 32.539063v28.332031c0 5.523438 4.476562 10 10 10h403.667969c5.519531 0 10-4.476562 10-10v-28.332031c0-19.667969-16-35.667969-35.667969-35.667969h-28.152344v-81.34375c0-12.734375 3.5625-25.285156 10.152344-36.109375v31.785156c0 5.523438 4.476562 10 10 10s10-4.476562 10-10v-72.1875h9v107.855469c0 5.523438 4.476562 10 10 10h12.847656v10c0 5.523438 4.476563 10 10 10h50.152344c16.542969 0 30-13.457031 30-30s-13.457031-30-30-30zm-236-217h20v28h-20zm157.667969 332.667969v18.332031h-383.667969v-18.332031c0-8.640625 7.027344-15.667969 15.667969-15.667969h45.332031c5.523438 0 10-4.476562 10-10s-4.476562-10-10-10h-39.914062v-12.332031h1.914062c5.523438 0 10-4.480469 10-10 0-5.523438-4.476562-10-10-10h-1.914062v-45.773438h11.082031c5.523437 0 10-4.476562 10-10v-4.433593c0-16.144532 7.902343-31.300782 21.136719-40.546876 8.347656-5.832031 18.140624-8.914062 28.324218-8.914062h93.257813c22.667969 0 41.113281 18.445312 41.113281 41.117188 0 13.769531-6.839844 26.558593-18.296875 34.199218l-12.226563 8.160156c-2.78125 1.851563-4.449218 4.976563-4.449218 8.316407v50.207031h-46.027344c-5.523438 0-10 4.476562-10 10s4.476562 10 10 10h223c8.640625 0 15.667969 7.027344 15.667969 15.667969zm-44.464844-172.546875c-12.484375 15.730468-19.355469 35.453125-19.355469 55.535156v81.34375h-108.820312v-44.855469l7.777344-5.1875c17.027343-11.363281 27.195312-30.371093 27.195312-50.84375 0-33.699219-27.414062-61.113281-61.113281-61.113281h-93.257813c-14.300781 0-28.058594 4.328125-39.78125 12.519531-17.054687 11.917969-27.800781 30.824219-29.457031 51.378907h-22.390625v-150.460938h22.167969v32.898438c0 5.519531 4.476562 10 10 10 5.523437 0 10-4.480469 10-10v-19.027344c14.765625 10.878906 32.835937 17.007812 51.503906 17.007812h206.496094c27.476562 0 49.832031 22.351563 49.832031 49.828125 0 11.203125-3.835938 22.203125-10.796875 30.976563zm122.796875 96.878906h-40.152344v-20h40.152344c5.515625 0 10 4.484375 10 10s-4.484375 10-10 10zm0 0"/><path d="m304 150c-17.644531 0-32 14.355469-32 32s14.355469 32 32 32 32-14.355469 32-32-14.355469-32-32-32zm0 44c-6.617188 0-12-5.382812-12-12s5.382812-12 12-12 12 5.382812 12 12-5.382812 12-12 12zm0 0"/><path d="m52.171875 148.78125c-2.640625 0-5.210937 1.070312-7.070313 2.929688-1.859374 1.859374-2.929687 4.4375-2.929687 7.070312 0 2.640625 1.066406 5.207031 2.929687 7.070312 1.859376 1.859376 4.429688 2.929688 7.070313 2.929688 2.628906 0 5.207031-1.070312 7.066406-2.929688 1.859375-1.863281 2.933594-4.441406 2.933594-7.070312 0-2.632812-1.070313-5.210938-2.933594-7.070312-1.859375-1.859376-4.4375-2.929688-7.066406-2.929688zm0 0"/></svg>