<svg id="Layer_1" enable-background="new 0 0 512 512" height="512" viewBox="0 0 512 512" width="512" xmlns="http://www.w3.org/2000/svg"><g><g><path clip-rule="evenodd" d="m365.177 453.056h77.67c12.047 0 21.912-9.865 21.912-21.912v-21.912l-56.693-15.761-64.8 15.761v21.912c-.001 12.047 9.863 21.912 21.911 21.912z" fill="#375e7d" fill-rule="evenodd"/></g><g><path clip-rule="evenodd" d="m69.125 453.056h77.67c12.076 0 21.912-9.865 21.912-21.912v-21.912l-56.155-10.517-65.339 10.517v21.912c.001 12.047 9.865 21.912 21.912 21.912z" fill="#375e7d" fill-rule="evenodd"/></g><g><path clip-rule="evenodd" d="m47.214 409.231h121.493 174.558 121.493 27.496c6.718 0 12.246-5.528 12.246-12.246v-286.903c0-6.718-5.528-12.218-12.246-12.218h-32.06-408.417-32.06c-6.718 0-12.217 5.499-12.217 12.218v286.903c0 6.718 5.499 12.246 12.217 12.246z" fill="#f9f7f8" fill-rule="evenodd"/></g><g><path clip-rule="evenodd" d="m440.919 273.986h19.219c2.381 0 4.365 1.956 4.365 4.337v43.286 43.258c0 2.381-1.984 4.365-4.365 4.365h-19.219v27.752c0 6.718-5.528 12.246-12.246 12.246h36.085 27.496c6.718 0 12.246-5.528 12.246-12.246v-286.902c0-6.718-5.528-12.218-12.246-12.218h-32.06-31.521c6.718 0 12.246 5.499 12.246 12.218v27.837c10.375.737 18.539 9.383 18.539 19.928 0 10.574-8.164 19.219-18.539 19.956z" fill="#e5e4ec" fill-rule="evenodd"/></g><g><path clip-rule="evenodd" d="m126.867 369.233h71.773c4.167 0 7.597-3.43 7.597-7.597v-80.081c0-4.167-3.43-7.569-7.597-7.569h-143.546c-4.195 0-7.597 3.402-7.597 7.569v80.081c0 4.167 3.402 7.597 7.597 7.597z" fill="#a1d4ff" fill-rule="evenodd"/></g><g><path clip-rule="evenodd" d="m126.867 233.11h71.773c4.167 0 7.597-3.43 7.597-7.597v-80.081c0-4.167-3.43-7.569-7.597-7.569h-143.546c-4.195 0-7.597 3.402-7.597 7.569v80.081c0 4.167 3.402 7.597 7.597 7.597z" fill="#a1d4ff" fill-rule="evenodd"/></g><g><path clip-rule="evenodd" d="m405.486 321.61h59.018v-43.286c0-2.381-1.984-4.337-4.365-4.337h-50.287c-2.409 0-4.365 1.956-4.365 4.337v43.286z" fill="#f37c7c" fill-rule="evenodd"/></g><g><path clip-rule="evenodd" d="m405.486 364.868c0 2.381 1.956 4.365 4.365 4.365h50.287c2.381 0 4.365-1.984 4.365-4.365v-43.258h-59.018v43.258z" fill="#f37c7c" fill-rule="evenodd"/></g><g><path clip-rule="evenodd" d="m47.497 159.605h127.9c4.167 0 7.597 3.402 7.597 7.597v65.908h15.647c4.167 0 7.597-3.43 7.597-7.597v-80.081c0-4.167-3.43-7.569-7.597-7.569h-143.547c-4.195 0-7.597 3.402-7.597 7.569z" fill="#75cef8" fill-rule="evenodd"/></g><g><path clip-rule="evenodd" d="m182.993 303.326v65.908h15.647c4.167 0 7.597-3.43 7.597-7.597v-80.081c0-4.167-3.43-7.569-7.597-7.569h-143.546c-4.195 0-7.597 3.402-7.597 7.569v14.174h127.9c4.167-.001 7.596 3.4 7.596 7.596z" fill="#75cef8" fill-rule="evenodd"/></g><g><path clip-rule="evenodd" d="m141.721 425.588v21.912c0 1.899-.255 3.77-.709 5.556h5.783c12.076 0 21.912-9.865 21.912-21.912v-21.912h-121.493v16.356z" fill="#2b4d66" fill-rule="evenodd"/></g><g><path clip-rule="evenodd" d="m437.772 425.588v21.912c0 1.899-.255 3.77-.737 5.556h5.811c12.047 0 21.912-9.865 21.912-21.912v-21.912h-121.493v16.356z" fill="#2b4d66" fill-rule="evenodd"/></g><g><path clip-rule="evenodd" d="m259.472 157.847c0 11.055 8.958 20.013 19.984 20.013 11.055 0 20.013-8.958 20.013-20.013 0-11.027-8.957-19.985-20.013-19.985-11.026.001-19.984 8.958-19.984 19.985z" fill="#4fc9af" fill-rule="evenodd"/></g><g><path clip-rule="evenodd" d="m339.466 157.847c0 11.055 8.958 20.013 20.013 20.013 11.027 0 19.984-8.958 19.984-20.013 0-11.027-8.957-19.985-19.984-19.985-11.055.001-20.013 8.958-20.013 19.985z" fill="#4fc9af" fill-rule="evenodd"/></g><g><path clip-rule="evenodd" d="m419.46 157.847c0 11.055 8.958 20.013 20.013 20.013s19.984-8.958 19.984-20.013c0-11.027-8.929-19.985-19.984-19.985s-20.013 8.958-20.013 19.985z" fill="#4fc9af" fill-rule="evenodd"/></g><g><path d="m492.255 90.365-24.561-.003v-11.972c0-14.858-12.088-26.946-26.945-26.946h-369.498c-14.873 0-26.974 12.088-26.974 26.946v11.971l-24.56.003c-10.871.001-19.717 8.846-19.717 19.718v112.482c0 4.142 3.357 7.5 7.5 7.5s7.5-3.358 7.5-7.5v-112.482c0-2.557 2.16-4.717 4.719-4.717l219.09-.029c4.143 0 7.5-3.359 7.499-7.501s-3.358-7.5-7.501-7.499l-179.53.024v-11.97c0-6.587 5.371-11.946 11.974-11.946h369.498c6.587 0 11.945 5.359 11.945 11.946v11.97l-179.274-.024c-.001 0-.001 0-.001 0-4.142 0-7.499 3.357-7.5 7.499s3.356 7.5 7.499 7.501l218.836.029c2.572 0 4.746 2.16 4.746 4.717v286.903c0 2.573-2.174 4.746-4.746 4.746h-472.536c-2.558 0-4.718-2.173-4.718-4.746v-139.78c0-4.142-3.357-7.5-7.5-7.5s-7.5 3.358-7.5 7.5v139.781c0 10.888 8.846 19.746 19.718 19.746h19.996v14.413c0 16.218 13.193 29.412 29.411 29.412h77.67c16.218 0 29.412-13.194 29.412-29.412v-14.413h159.558v14.413c0 16.218 13.194 29.412 29.412 29.412h77.67c16.218 0 29.411-13.194 29.411-29.412v-14.413h19.996c10.888 0 19.746-8.858 19.746-19.746v-286.904c0-10.872-8.858-19.717-19.745-19.717zm-331.048 340.779c0 7.947-6.465 14.412-14.412 14.412h-77.67c-7.946 0-14.411-6.465-14.411-14.412v-14.413h106.493zm296.051 0c0 7.947-6.465 14.412-14.411 14.412h-77.67c-7.947 0-14.412-6.465-14.412-14.412v-14.413h106.493z"/><path d="m39.997 361.636c0 8.325 6.772 15.097 15.097 15.097h143.547c8.324 0 15.097-6.772 15.097-15.097v-80.081c0-8.309-6.772-15.069-15.097-15.069h-143.547c-8.324 0-15.097 6.76-15.097 15.069zm15-80.089s.026-.061.097-.061h143.547c.046 0 .093.061.097.069v80.083c-.009.031-.063.086-.097.095h-67.559l-13.966-22.934c-2.155-3.537-6.771-4.658-10.307-2.505-3.538 2.154-4.66 6.769-2.506 10.307l9.215 15.132h-58.424c-.045 0-.097-.064-.097-.097z"/><path d="m397.985 278.324v86.544c0 6.543 5.322 11.866 11.865 11.866h50.287c6.543 0 11.865-5.323 11.865-11.866v-86.544c0-6.527-5.322-11.837-11.865-11.837h-50.287c-6.542-.001-11.865 5.309-11.865 11.837zm15 83.409v-32.623h44.018v32.624h-44.018zm44.018-80.247v32.624h-44.018v-32.624z"/><path d="m84.563 329.255c22.924-17.86 61.656-17.861 84.58 0 1.369 1.067 2.992 1.584 4.604 1.584 2.232 0 4.442-.993 5.921-2.891 2.546-3.268 1.961-7.98-1.307-10.526-28.402-22.129-74.617-22.128-103.018 0-3.268 2.545-3.853 7.258-1.307 10.525 2.548 3.27 7.262 3.855 10.527 1.308z"/><path d="m55.094 240.609h143.547c8.324 0 15.097-6.772 15.097-15.097v-80.082c0-8.309-6.772-15.068-15.097-15.068h-143.547c-8.324 0-15.097 6.76-15.097 15.068v80.082c0 8.325 6.773 15.097 15.097 15.097zm-.097-95.186s.026-.061.097-.061h143.547c.048 0 .095.064.097.068v80.084c-.009.031-.063.085-.097.094h-58.437l9.201-15.137c2.151-3.54 1.026-8.153-2.514-10.305-3.538-2.152-8.152-1.027-10.305 2.513l-13.938 22.929h-67.554c-.045 0-.097-.064-.097-.097z"/><path d="m79.959 194.716c1.611 0 3.235-.517 4.604-1.584 22.924-17.86 61.656-17.861 84.58 0 3.267 2.545 7.98 1.961 10.525-1.307 2.546-3.268 1.961-7.98-1.307-10.526-28.402-22.129-74.617-22.128-103.018 0-3.268 2.545-3.853 7.258-1.307 10.526 1.481 1.898 3.691 2.891 5.923 2.891z"/><path d="m251.848 364.232h108.028c4.143 0 7.5-3.358 7.5-7.5s-3.357-7.5-7.5-7.5h-108.028c-4.143 0-7.5 3.358-7.5 7.5s3.357 7.5 7.5 7.5z"/><path d="m251.848 329.11h108.028c4.143 0 7.5-3.358 7.5-7.5s-3.357-7.5-7.5-7.5h-108.028c-4.143 0-7.5 3.358-7.5 7.5s3.357 7.5 7.5 7.5z"/><path d="m244.348 286.459c0 4.142 3.357 7.5 7.5 7.5h108.028c4.143 0 7.5-3.358 7.5-7.5s-3.357-7.5-7.5-7.5h-108.028c-4.143 0-7.5 3.358-7.5 7.5z"/><path d="m306.97 157.848c0-15.155-12.342-27.485-27.513-27.485-15.155 0-27.484 12.33-27.484 27.485 0 15.171 12.329 27.513 27.484 27.513 15.171 0 27.513-12.342 27.513-27.513zm-39.997 0c0-6.884 5.601-12.485 12.484-12.485 6.899 0 12.513 5.601 12.513 12.485 0 6.9-5.613 12.513-12.513 12.513-6.884 0-12.484-5.613-12.484-12.513z"/><path d="m386.964 157.848c0-15.155-12.329-27.485-27.484-27.485-15.171 0-27.513 12.33-27.513 27.485 0 15.171 12.342 27.513 27.513 27.513 15.155 0 27.484-12.342 27.484-27.513zm-39.997 0c0-6.884 5.613-12.485 12.513-12.485 6.884 0 12.484 5.601 12.484 12.485 0 6.9-5.601 12.513-12.484 12.513-6.9 0-12.513-5.613-12.513-12.513z"/><path d="m466.957 157.848c0-15.155-12.329-27.485-27.484-27.485-15.171 0-27.513 12.33-27.513 27.485 0 15.171 12.342 27.513 27.513 27.513 15.155 0 27.484-12.342 27.484-27.513zm-39.997 0c0-6.884 5.613-12.485 12.513-12.485 6.884 0 12.484 5.601 12.484 12.485 0 6.9-5.601 12.513-12.484 12.513-6.9 0-12.513-5.613-12.513-12.513z"/></g></g></svg>