<svg id="Capa_1" enable-background="new 0 0 512 512" height="512" viewBox="0 0 512 512" width="512" xmlns="http://www.w3.org/2000/svg"><g><path d="m510.919 257.515-65.753-129.679c11.027-4.439 18.834-15.24 18.834-27.836 0-16.542-13.458-30-30-30h-138.027c-2.839-3.774-6.199-7.134-9.973-9.973v-30.027c0-16.542-13.458-30-30-30s-30 13.458-30 30v30.027c-3.774 2.839-7.134 6.199-9.973 9.973h-138.027c-16.542 0-30 13.458-30 30 0 12.596 7.807 23.397 18.834 27.836l-65.753 129.679c-.711 1.402-1.081 2.951-1.081 4.523 0 45.215 36.785 82 82 82s82-36.785 82-82c0-1.571-.37-3.121-1.081-4.522l-64.656-127.516h117.764c2.839 3.774 6.199 7.134 9.973 9.973v256.027h-5.126c-30.917 0-56.077 25.105-56.175 56h-31.184c-27.57 0-50 22.43-50 50 0 5.523 4.477 10 10 10h324.971c5.523 0 10-4.477 10-10 0-27.57-22.43-50-50-50h-31.184c-.098-30.895-25.258-56-56.175-56h-5.127v-256.027c3.774-2.839 7.134-6.199 9.973-9.973h117.764l-64.656 127.515c-.711 1.402-1.081 2.951-1.081 4.522 0 45.215 36.785 82 82 82s82-36.785 82-82c0-1.571-.37-3.12-1.081-4.522zm-373.201-5.477h-111.436l55.718-109.888zm69.288-142.038h-129.006c-5.514 0-10-4.486-10-10s4.486-10 10-10h129.006c-.659 3.232-1.006 6.576-1.006 10s.347 6.768 1.006 10zm38.994-80c0-5.514 4.486-10 10-10s10 4.486 10 10v21.006c-3.232-.659-6.576-1.006-10-1.006s-6.768.347-10 1.006zm132.485 442c13.038 0 24.159 8.359 28.287 20h-301.544c4.127-11.641 15.249-20 28.287-20zm-87.359-56c19.889 0 36.077 16.133 36.175 36h-142.603c.098-19.867 16.286-36 36.175-36zm-45.126-20v-247.006c3.232.659 6.576 1.006 10 1.006s6.768-.347 10-1.006v247.006zm10-266c-16.542 0-30-13.458-30-30s13.458-30 30-30 30 13.458 30 30-13.458 30-30 30zm48.994-20c.659-3.232 1.006-6.576 1.006-10s-.347-6.768-1.006-10h129.006c5.514 0 10 4.486 10 10s-4.486 10-10 10zm69.288 142.038 55.718-109.888 55.718 109.887h-111.436z"/><circle cx="256" cy="100" r="10"/></g></svg>