<svg id="Capa_1" enable-background="new 0 0 512 512" height="512" viewBox="0 0 512 512" width="512" xmlns="http://www.w3.org/2000/svg"><g><path d="m366.497 331.591c4.143 0 7.5-3.357 7.5-7.5s-3.357-7.5-7.5-7.5h-22.052c-4.143 0-7.5 3.357-7.5 7.5v52.575c0 4.143 3.357 7.5 7.5 7.5h22.052c4.143 0 7.5-3.357 7.5-7.5s-3.357-7.5-7.5-7.5h-14.552v-11.167h12.926c4.143 0 7.5-3.357 7.5-7.5s-3.357-7.5-7.5-7.5h-12.926v-11.408zm-32.56-22.182c4.143 0 7.5-3.357 7.5-7.5v-45.316h7.144c4.143 0 7.5-3.357 7.5-7.5s-3.357-7.5-7.5-7.5h-29.168c-4.143 0-7.5 3.357-7.5 7.5s3.357 7.5 7.5 7.5h7.024v45.316c0 4.143 3.357 7.5 7.5 7.5zm-97.833 28.408c0-11.704-9.87-21.227-22.003-21.227h-14.035c-.003 0-.006 0-.009 0s-.006 0-.009 0c-4.143 0-7.5 3.357-7.5 7.5v52.816c0 4.143 3.357 7.5 7.5 7.5s7.5-3.357 7.5-7.5v-12.571l15.426 17.526c1.482 1.685 3.553 2.545 5.633 2.545 1.76 0 3.527-.616 4.952-1.87 3.109-2.736 3.411-7.476.675-10.585l-12.516-14.221c8.39-2.995 14.386-10.791 14.386-19.913zm-22.002 6.227c-1.536 0-4.024.01-6.479.021-.011-2.379-.021-4.772-.021-6.247 0-1.263-.006-3.728-.013-6.227h6.513c3.796 0 7.003 2.852 7.003 6.227s-3.208 6.226-7.003 6.226zm273.65-88.044c0-9.655 3.641-20.619 7.161-31.222 5.291-15.934 10.762-32.41 5.692-47.903-5.284-16.153-19.78-26.416-33.798-36.341-9.27-6.562-18.024-12.762-23.384-20.083-5.457-7.457-8.738-17.756-12.211-28.658-5.165-16.213-10.506-32.978-24.102-42.835-13.449-9.752-31.03-9.681-48.029-9.588-11.568.05-22.509.105-31.485-2.804-8.433-2.732-16.926-9.011-25.919-15.657-13.906-10.279-28.287-20.909-45.677-20.909s-31.771 10.63-45.679 20.909c-8.992 6.646-17.486 12.925-25.918 15.657-8.976 2.91-19.915 2.854-31.485 2.804-17.001-.085-34.581-.163-48.029 9.588-10.489 7.604-15.89 19.454-19.423 28.928-1.447 3.881.525 8.201 4.406 9.648 3.88 1.444 8.2-.526 9.648-4.406 4.153-11.138 8.524-17.931 14.173-22.025 9.479-6.873 23.896-6.803 39.153-6.733 12.245.057 24.915.117 36.182-3.533 10.757-3.486 20.646-10.796 30.209-17.864 12.504-9.244 24.316-17.973 36.763-17.973s24.258 8.729 36.762 17.972c9.563 7.068 19.452 14.378 30.21 17.864 11.265 3.651 23.93 3.6 36.182 3.533 15.266-.069 29.676-.139 39.153 6.733 9.604 6.963 13.98 20.7 18.613 35.243 3.686 11.569 7.497 23.533 14.4 32.965 6.801 9.293 16.978 16.498 26.82 23.466 12.581 8.908 24.466 17.322 28.209 28.763 3.531 10.794-.939 24.258-5.673 38.513-3.896 11.734-7.925 23.867-7.925 35.948s4.029 24.214 7.925 35.948c4.733 14.255 9.204 27.719 5.673 38.513-3.743 11.44-15.628 19.854-28.209 28.763-9.843 6.968-20.02 14.173-26.82 23.466-6.903 9.432-10.715 21.396-14.4 32.965-4.633 14.543-9.009 28.28-18.613 35.243-9.479 6.873-23.896 6.799-39.153 6.733-12.249-.062-24.916-.119-36.182 3.533-10.757 3.486-20.646 10.796-30.209 17.864-12.504 9.243-24.316 17.972-36.763 17.972s-24.258-8.729-36.762-17.972c-9.563-7.068-19.452-14.378-30.21-17.864-11.265-3.651-23.926-3.596-36.182-3.533-15.258.067-29.675.14-39.153-6.733-9.604-6.963-13.98-20.7-18.613-35.243-3.686-11.569-7.497-23.533-14.4-32.965-6.801-9.293-16.978-16.498-26.82-23.466-12.581-8.908-24.466-17.322-28.209-28.763-3.531-10.794.939-24.258 5.673-38.513 3.896-11.734 7.925-23.867 7.925-35.948s-4.029-24.214-7.925-35.948c-4.733-14.255-9.204-27.719-5.673-38.513 3.743-11.44 15.628-19.854 28.209-28.763 9.843-6.968 20.02-14.173 26.821-23.467 2.612-3.569 4.946-7.714 7.136-12.672 1.674-3.789-.041-8.217-3.83-9.891-3.787-1.672-8.217.04-9.891 3.83-1.748 3.957-3.554 7.188-5.52 9.874-5.359 7.321-14.114 13.521-23.384 20.083-14.018 9.925-28.514 20.188-33.798 36.341-5.069 15.493.401 31.97 5.692 47.903 3.521 10.603 7.161 21.566 7.161 31.222s-3.641 20.619-7.161 31.222c-5.291 15.934-10.762 32.41-5.692 47.903 5.284 16.153 19.78 26.416 33.798 36.341 9.27 6.562 18.024 12.762 23.384 20.083 5.457 7.457 8.738 17.756 12.211 28.658 5.165 16.213 10.506 32.978 24.102 42.835 13.449 9.751 31.021 9.674 48.029 9.588 11.566-.051 22.508-.106 31.485 2.804 8.433 2.732 16.926 9.011 25.919 15.657 13.907 10.28 28.288 20.91 45.678 20.91s31.771-10.63 45.679-20.909c8.992-6.646 17.486-12.925 25.918-15.657 8.976-2.909 19.918-2.854 31.485-2.804 17.006.09 34.58.163 48.029-9.588 13.596-9.857 18.937-26.622 24.102-42.835 3.473-10.902 6.754-21.201 12.211-28.658 5.359-7.321 14.114-13.521 23.384-20.083 14.018-9.925 28.514-20.188 33.798-36.341 5.069-15.493-.401-31.97-5.692-47.903-3.521-10.603-7.162-21.567-7.162-31.222zm-253.408-63.766c-3.467-2.268-8.114-1.297-10.382 2.171-2.268 3.466-1.296 8.114 2.171 10.382 8.497 5.558 14.378 7.326 21.764 7.823v6.581c0 4.143 3.357 7.5 7.5 7.5s7.5-3.357 7.5-7.5v-7.25c14.542-3.253 23.881-15.481 25.908-27.541 2.582-15.36-5.447-28.714-20.456-34.019-1.793-.634-3.624-1.295-5.452-1.982v-30.367c4.246 1.217 6.765 3.334 7.014 3.549 3.047 2.754 7.75 2.544 10.541-.48 2.808-3.045 2.616-7.79-.429-10.599-.384-.354-6.729-6.063-17.126-7.821v-5.871c0-4.143-3.357-7.5-7.5-7.5s-7.5 3.357-7.5 7.5v6.424c-.827.195-1.662.409-2.514.665-9.916 2.987-17.323 11.464-19.332 22.123-1.837 9.745 1.301 19.154 8.189 24.558 3.491 2.738 7.803 5.248 13.656 7.881v39.1c-4.847-.459-8.131-1.779-13.552-5.327zm28.552-27.873c.154.054.298.107.453.162 11.899 4.206 11.17 14.373 10.662 17.389-.949 5.643-4.724 11.618-11.115 14.348zm-19.398-25.585c-2.428-1.904-3.49-5.82-2.707-9.977.669-3.547 2.88-7.758 7.105-9.825v22.703c-1.633-.935-3.124-1.902-4.398-2.901zm152.317 248.7c3.111 2.736 7.851 2.43 10.584-.684 31.853-36.252 49.394-82.701 49.394-130.792 0-109.667-89.627-198.887-199.793-198.887s-199.793 89.22-199.793 198.887 89.627 198.887 199.793 198.887c45.504 0 88.399-14.896 124.049-43.079 3.249-2.569 3.801-7.286 1.232-10.535-2.568-3.248-7.285-3.799-10.535-1.232-32.974 26.068-72.652 39.847-114.746 39.847-101.896 0-184.793-82.491-184.793-183.887s82.897-183.888 184.793-183.888 184.793 82.491 184.793 183.887c0 44.444-16.216 87.378-45.661 120.892-2.735 3.111-2.429 7.85.683 10.584zm-146.067-85.808c0-4.143-3.357-7.5-7.5-7.5h-14.551v-11.167h12.926c4.143 0 7.5-3.357 7.5-7.5s-3.357-7.5-7.5-7.5h-12.926v-11.408h14.551c4.143 0 7.5-3.357 7.5-7.5s-3.357-7.5-7.5-7.5h-22.051c-4.143 0-7.5 3.357-7.5 7.5v52.575c0 4.143 3.357 7.5 7.5 7.5h22.051c4.143 0 7.5-3.357 7.5-7.5zm53.801 82.739c7.498 0 14.235-2.47 19.48-7.142 1.028-.915 2.005-1.923 2.904-2.995 2.66-3.175 2.244-7.905-.93-10.566-3.175-2.661-7.905-2.244-10.566.93-.432.516-.897.996-1.384 1.43-2.491 2.219-5.689 3.344-9.505 3.344-10.426 0-18.908-8.482-18.908-18.908s8.482-18.908 18.908-18.908c3.789 0 7.443 1.115 10.566 3.226 3.432 2.317 8.094 1.416 10.413-2.017 2.318-3.432 1.416-8.094-2.017-10.413-5.612-3.792-12.169-5.796-18.963-5.796-18.697 0-33.908 15.211-33.908 33.908s15.213 33.907 33.91 33.907zm-143.34-67.816h-14.706c-2.334-.469-7.972 3.089-7.5 7.5v52.816c0 4.143 3.357 7.5 7.5 7.5s7.5-3.357 7.5-7.5v-15.482c2.701-.013 5.51-.025 7.206-.025 12.516 0 22.697-10.051 22.697-22.404 0-12.354-10.181-22.405-22.697-22.405zm0 29.809c-1.684 0-4.459.012-7.145.024-.013-2.789-.024-5.693-.024-7.429 0-1.479-.007-4.479-.015-7.405h7.184c4.172 0 7.697 3.392 7.697 7.405s-3.525 7.405-7.697 7.405zm92.812 38.007c4.143 0 7.5-3.357 7.5-7.5v-52.816c0-4.143-3.357-7.5-7.5-7.5s-7.5 3.357-7.5 7.5v52.816c0 4.143 3.357 7.5 7.5 7.5zm52.678-92.627c1.378-7.722-2.082-17.793-15.928-22.899-6.335-2.337-12.243-4.879-14.213-5.739-.955-.83-.971-1.924-.883-2.538.109-.762.677-2.628 3.572-3.5 6.953-2.097 13.5 3.031 13.708 3.197 3.17 2.625 7.869 2.204 10.522-.952 2.665-3.171 2.256-7.902-.915-10.567-.514-.433-12.754-10.529-27.643-6.04-7.63 2.299-13.029 8.326-14.093 15.73-1 6.97 2.022 13.675 7.888 17.498 2.505 1.633 6.816 3.277 16.864 6.983 1.642.605 6.95 2.842 6.353 6.19-.452 2.532-3.771 5.266-8.343 5.266-5 0-9.803-2.006-12.849-5.366-2.783-3.069-7.526-3.302-10.594-.52-3.069 2.781-3.302 7.524-.52 10.594 5.929 6.541 14.662 10.292 23.962 10.292 11.569 0 21.288-7.414 23.112-17.629zm-102.542-4.15c0-6.541-2.911-12.411-7.5-16.396 1.74-2.931 2.758-6.339 2.758-9.988 0-10.837-8.816-19.653-19.653-19.653h-15.342c-4.143 0-7.5 3.357-7.5 7.5v52.816c-.021 4.067 3.425 7.521 7.5 7.5h.033c.002 0 14.103-.063 17.988-.063 11.975 0 21.716-9.742 21.716-21.716zm-32.237-31.037h7.842c2.565 0 4.653 2.088 4.653 4.653s-2.088 4.652-4.653 4.652c-1.148 0-7.842.015-7.842.015zm10.521 37.753c-1.955 0-6.487.016-10.521.032v-13.457c.73-.003 10.521-.008 10.521-.008 3.703 0 6.716 3.013 6.716 6.717 0 3.703-3.012 6.716-6.716 6.716z"/></g></svg>