<svg id="Layer_1" enable-background="new 0 0 512 512" height="512" viewBox="0 0 512 512" width="512" xmlns="http://www.w3.org/2000/svg"><g><path d="m443.6 285.9c17.3 1.4 32.4-12.5 32.4-29.9.1-17.4-15.1-31.3-32.4-29.9-16.2-17.5-40.9-41.3-71.5-61.3-79.5-51.7-152.8-51.7-232.3 0-30.6 20-55.3 43.8-71.5 61.3-17.2-1.4-32.4 12.5-32.3 29.9-.1 17.4 15.1 31.3 32.4 29.9 16.2 17.5 40.9 41.3 71.5 61.3 79.5 51.7 152.8 51.7 232.3 0 30.5-20 55.3-43.8 71.4-61.3zm12.4-29.9c0 5.5-4.5 10-10 10-13.3-.5-13.3-19.5 0-20 5.5 0 10 4.5 10 10zm-90 0c0 60.4-49 109.6-109.3 110-.5 0-1 0-1.5 0-145-6.9-144.9-213.2 0-220h1.5c60.3.4 109.3 49.6 109.3 110zm-310 0c0-5.5 4.5-10 10-10 13.3.5 13.3 19.5 0 20-5.5 0-10-4.5-10-10zm31.4 21c11.3-11.1 11.3-30.8 0-41.9 13.9-14.5 35-34.3 60.7-51.5-29.2 41.2-29.2 103.8 0 144.9-25.7-17.3-46.8-37-60.7-51.5zm276.5 51.5c29.2-41.2 29.2-103.8 0-144.9 25.7 17.2 46.8 37 60.7 51.5-11.3 11.1-11.3 30.8 0 41.9-13.9 14.5-35 34.2-60.7 51.5z"/><path d="m226 248v38h60v-60h-38z"/><path d="m246 196v-10c-.5-13.3-19.5-13.3-20 0v10h-10c-11 0-20 9-20 20v10h-10c-13.3.5-13.3 19.5 0 20h10v20h-10c-13.3.5-13.3 19.5 0 20h10v10c0 11 9 20 20 20h10v10c.5 13.3 19.5 13.3 20 0v-10h20v10c.5 13.3 19.5 13.3 20 0v-10h10c11 0 20-9 20-20v-10h10c13.3-.5 13.3-19.5 0-20h-10v-20h10c13.3-.5 13.3-19.5 0-20h-10v-10c0-11-9-20-20-20h-10v-10c-.5-13.3-19.5-13.3-20 0v10zm50 100h-80v-80h80z"/><path d="m406 166c5.5 0 10-4.5 10-10v-10h66c5.5 0 10-4.5 10-10v-31.7c31.3-11.6 23.8-57.6-10-58.3-33.8.6-41.3 46.7-10 58.3v21.7h-66c-5.5 0-10 4.5-10 10v20c0 5.5 4.5 10 10 10zm76-100c5.5 0 10 4.5 10 10-.5 13.3-19.5 13.3-20 0 0-5.5 4.5-10 10-10z"/><path d="m110 346c-5.5 0-10 4.5-10 10v10h-70c-5.5 0-10 4.5-10 10v31.7c-31.3 11.6-23.9 57.7 10 58.3 33.8-.6 41.3-46.7 10-58.3v-21.7h70c5.5 0 10-4.5 10-10v-20c0-5.5-4.5-10-10-10zm-80 100c-5.5 0-10-4.5-10-10 .5-13.3 19.5-13.3 20 0 0 5.5-4.5 10-10 10z"/><path d="m30 166c13 0 24.2-8.4 28.3-20h47.7v10c.5 13.3 19.5 13.3 20 0v-20c0-5.5-4.5-10-10-10h-57.7c-11.6-31.3-57.7-23.8-58.3 10 0 16.5 13.5 30 30 30zm0-40c5.5 0 10 4.5 10 10-.5 13.3-19.5 13.3-20 0 0-5.5 4.5-10 10-10z"/><path d="m482 346c-13 0-24.2 8.4-28.3 20h-47.7v-10c-.5-13.3-19.5-13.3-20 0v20c0 5.5 4.5 10 10 10h57.7c11.6 31.3 57.6 23.8 58.3-10 0-16.5-13.5-30-30-30zm0 40c-5.5 0-10-4.5-10-10 .5-13.3 19.5-13.3 20 0 0 5.5-4.5 10-10 10z"/></g></svg>