<svg id="Layer_1" enable-background="new 0 0 512.911 512.911" height="512" viewBox="0 0 512.911 512.911" width="512" xmlns="http://www.w3.org/2000/svg"><g><path d="m503.449 259.948-92.184 52.989c-2.675 1.54-6.012-.39-6.012-3.47v-37.99h-85.426c-4.107 0-7.796 2.502-9.306 6.314-5.896 14.885-17.789 26.759-32.709 32.644-3.819 1.506-6.327 5.189-6.327 9.287v85.254h38.076c3.076 0 5.01 3.33 3.467 6l-53.106 91.999c-1.543 2.67-5.391 2.67-6.934 0l-53.106-91.999c-1.543-2.67.391-6 3.467-6h38.076v-85.254c0-4.099-2.507-7.781-6.327-9.287-14.92-5.885-26.813-17.759-32.709-32.644-1.51-3.811-5.199-6.314-9.306-6.314h-85.426v38c0 3.07-3.337 5-6.012 3.46l-92.183-52.999c-2.675-1.54-2.675-5.38 0-6.92l92.184-52.999c2.675-1.54 6.012.39 6.012 3.46v38h85.426c4.107 0 7.796-2.502 9.306-6.314 5.896-14.885 17.789-26.759 32.709-32.644 3.819-1.506 6.327-5.189 6.327-9.287v-85.254h-38.066c-3.086 0-5.02-3.33-3.477-6l53.095-92c1.543-2.67 5.411-2.67 6.954 0l53.096 91.999c1.543 2.67-.391 6-3.477 6h-38.066v85.254c0 4.099 2.507 7.781 6.327 9.287 14.92 5.885 26.813 17.759 32.709 32.644 1.51 3.811 5.199 6.314 9.306 6.314h85.426v-37.99c0-3.08 3.337-5.01 6.012-3.47l92.184 52.989c2.675 1.541 2.675 5.401 0 6.941z" fill="#71abdf"/><g fill="#4a9bd9"><path d="m283.028 101.979c1.543 2.67-.391 6-3.477 6h30c3.086 0 5.02-3.33 3.477-6l-53.096-91.999c-1.543-2.67-5.411-2.67-6.954 0l-11.523 19.966z"/><path d="m241.485 107.979v85.254c0 4.099 2.507 7.781 6.327 9.287 14.92 5.885 26.813 17.759 32.709 32.644 1.51 3.812 5.199 6.313 9.306 6.313h30c-4.107 0-7.796-2.502-9.306-6.313-5.896-14.885-17.789-26.759-32.708-32.644-3.819-1.507-6.327-5.189-6.327-9.287v-85.254z"/><path d="m503.449 253.008-92.184-52.99c-2.675-1.54-6.012.39-6.012 3.47v10.595l51.392 30.133c9.366 5.492 9.366 19.032 0 24.524l-51.392 30.133v10.595c0 3.08 3.337 5.01 6.012 3.47l92.184-52.99c2.675-1.54 2.675-5.4 0-6.94z"/><path d="m280.52 277.791c-5.896 14.885-17.789 26.759-32.709 32.644-3.819 1.506-6.327 5.189-6.327 9.287v85.254h30v-85.254c0-4.099 2.507-7.781 6.327-9.287 14.92-5.885 26.813-17.759 32.708-32.644 1.51-3.812 5.199-6.314 9.306-6.314h-30c-4.105 0-7.795 2.503-9.305 6.314z"/><path d="m309.561 404.976h-30c3.076 0 5.01 3.33 3.467 6l-41.573 72.02 11.533 19.979c1.543 2.67 5.391 2.67 6.934 0l53.106-91.999c1.544-2.67-.39-6-3.467-6z"/></g><g><path d="m195.417 280.553c6.651 16.791 20.111 30.225 36.93 36.859.958.378 1.578 1.285 1.578 2.31v32.448c.344 9.931 14.659 9.923 15 0v-32.448c0-7.227-4.347-13.611-11.075-16.264-12.975-5.118-23.358-15.479-28.487-28.428-2.659-6.714-9.048-11.052-16.279-11.052h-85.426c-4.142 0-7.5 3.358-7.5 7.5v31.953l-81.667-46.953 81.667-46.953v31.953c0 4.142 3.358 7.5 7.5 7.5h85.426c7.23 0 13.62-4.338 16.278-11.051 5.129-12.95 15.513-23.312 28.488-28.429 6.728-2.653 11.075-9.038 11.075-16.264v-85.254c0-4.142-3.358-7.5-7.5-7.5h-32.018l47.048-81.519 4.496 7.791c2.071 3.587 6.658 4.819 10.245 2.747 3.588-2.07 4.817-6.657 2.747-10.245l-7.519-13.026c-2.049-3.546-5.869-5.749-9.969-5.75-4.1 0-7.921 2.203-9.974 5.753l-53.094 91.995c-2.048 3.545-2.05 7.95-.004 11.495 2.049 3.552 5.872 5.758 9.975 5.758h30.566v77.754c0 1.025-.62 1.932-1.579 2.31-16.818 6.634-30.278 20.068-36.93 36.86-.379.957-1.294 1.575-2.333 1.575h-77.926v-30.5c0-4.088-2.201-7.9-5.744-9.949-3.548-2.053-7.959-2.055-11.506-.013l-92.186 53.002c-7.629 4.281-7.626 15.643.003 19.922l92.181 52.998c3.552 2.045 7.962 2.042 11.51-.011 3.543-2.048 5.744-5.861 5.744-9.949v-30.5h77.926c1.038 0 1.954.618 2.333 1.575z"/><path d="m437.41 289.258-24.658 14.174v-31.954c0-4.142-3.357-7.5-7.5-7.5h-85.426c-7.229 0-13.619 4.338-16.278 11.052-5.129 12.949-15.513 23.311-28.488 28.429-6.728 2.653-11.074 9.038-11.074 16.264v85.254c0 4.142 3.357 7.5 7.5 7.5h32.018l-47.048 81.503-47.047-81.503h32.017c4.142 0 7.5-3.358 7.5-7.5v-17.421c-.344-9.931-14.659-9.923-15 0v9.921h-30.576c-4.098 0-7.916 2.205-9.965 5.755-2.046 3.547-2.045 7.953.002 11.495l53.108 92.002c4.286 7.608 15.639 7.606 19.922-.003l53.104-91.996c2.05-3.546 2.051-7.952.004-11.498-2.048-3.55-5.866-5.755-9.964-5.755h-30.576v-77.754c0-1.025.619-1.932 1.578-2.31 16.819-6.634 30.279-20.069 36.93-36.859.379-.957 1.295-1.576 2.333-1.576h77.926v30.489c0 4.093 2.202 7.91 5.747 9.959 3.547 2.05 7.956 2.055 11.503.013l29.883-17.177c3.592-2.064 4.829-6.649 2.765-10.24-2.064-3.59-6.65-4.828-10.24-2.764z"/><path d="m507.186 246.506-92.18-52.988c-3.551-2.043-7.96-2.04-11.507.011-3.545 2.05-5.747 5.866-5.747 9.959v30.489h-77.926c-1.038 0-1.954-.619-2.333-1.575-6.65-16.791-20.11-30.225-36.93-36.859-.959-.378-1.578-1.285-1.578-2.31v-77.754h30.565c4.104 0 7.926-2.206 9.976-5.758 2.046-3.545 2.044-7.95-.002-11.491l-28.088-48.667c-2.071-3.587-6.658-4.818-10.245-2.747-3.588 2.07-4.817 6.657-2.747 10.245l25.059 43.418h-32.018c-4.143 0-7.5 3.358-7.5 7.5v85.254c0 7.227 4.347 13.611 11.074 16.264 12.976 5.118 23.359 15.479 28.488 28.429 2.659 6.713 9.049 11.051 16.278 11.051h85.426c4.143 0 7.5-3.358 7.5-7.5v-31.954l81.683 46.954-27.014 15.528c-3.592 2.064-4.829 6.649-2.765 10.24 1.387 2.413 3.912 3.764 6.509 3.764 1.268 0 2.553-.322 3.73-.999l32.294-18.563c7.632-4.278 7.629-15.664-.002-19.941z"/></g></g></svg>